<?xml version="1.0" encoding="utf-8"?>
<!-- Generator: Adobe Illustrator 21.0.2, SVG Export Plug-In . SVG Version: 6.00 Build 0)  -->
<svg version="1.1" id="Layer_1" xmlns="http://www.w3.org/2000/svg" xmlns:xlink="http://www.w3.org/1999/xlink" x="0px" y="0px"
	 viewBox="0 0 750 217" style="enable-background:new 0 0 750 217;" xml:space="preserve">
<style type="text/css">
	.st0{fill:#FFFFFF;}
	.st1{fill:#FF0033;}
</style>
<g>
	<path class="st0" d="M749.8,34.8l-20.8,0L729,84c-9.8-9.8-21.4-14.3-36.5-14.3c-15.2,0-28.9,5.6-39.6,16.1
		c-10.9,10.9-16.7,24.7-16.7,39.9c0,15.2,5.8,29,16.7,39.9c10.7,10.5,24.5,16.1,39.8,16.1c15,0,26.4-4.2,36.3-14l0,11.9l20.9,0
		L749.8,34.8z M727.5,125.7c0,21-14.9,36.3-35.3,36.3c-9.4,0-18.2-3.7-24.8-10.5c-6.7-6.8-10.3-16-10.3-25.8
		c0-9.9,3.7-19.1,10.3-25.9c6.6-6.8,15.4-10.6,24.8-10.6C712.7,89.2,727.5,104.5,727.5,125.7z"/>
	<path class="st0" d="M438,162.3c-8.4,0-16-2.5-22-7.4c-5.9-4.9-10.1-11.7-12.1-20.3h89.1l0,0c0,0,3.8-20-8.8-38.4
		c-10.9-16-27.3-24.8-46.3-24.8c-14.9,0-28.9,5.8-39.4,16.2c-10.6,10.6-16.5,24.6-16.5,39.4c0,14.7,5.8,28.7,16.5,39.3
		c10.4,10.4,23.8,16.1,39.4,16.1c6.9,0,21.6-1.2,33.9-11.1c14.6-11.7,18.8-26.2,18.8-26.2h-23c0,0-3.1,5.8-9.4,10.6
		C450.3,162,441.7,162.3,438,162.3z M404.8,116.1c0,0,3.1-10.9,12.4-18.3c5.4-4.2,12.5-7.2,22.4-6.9c11.1,0.3,19.1,5.8,23.5,10.5
		c6.3,6.8,8.1,14.7,8.1,14.7H404.8z"/>
	<path class="st0" d="M564.3,162.3c-8.4,0-16-2.5-22-7.4c-5.9-4.9-10.1-11.7-12.1-20.3h89.1l0,0c0,0,3.8-20-8.8-38.4
		c-10.9-16-27.3-24.8-46.3-24.8c-14.9,0-28.9,5.8-39.4,16.2c-10.6,10.6-16.5,24.6-16.5,39.4c0,14.7,5.8,28.7,16.5,39.3
		c10.4,10.4,23.8,16.1,39.4,16.1c6.9,0,21.6-1.2,33.9-11.1c14.6-11.7,18.8-26.2,18.8-26.2h-23c0,0-3.1,5.8-9.4,10.6
		C576.6,162,568,162.3,564.3,162.3z M531.1,116.1c0,0,3.1-10.9,12.4-18.3c5.4-4.2,12.5-7.2,22.4-6.9c11.1,0.3,19.1,5.8,23.5,10.5
		c6.3,6.8,8.1,14.7,8.1,14.7H531.1z"/>
	<path class="st0" d="M306.2,71.2c-14.7,0-25.3,4.3-36.4,13.7l0-50.1l-20.8,0l0,144.8l20.8,0l0.2-52.9c0-10,3.8-19.2,10.6-25.9
		c6.8-6.6,15.9-10.3,25.8-10.3c19.3,0,33.4,14.2,34.3,36.2l0,53.1h20.3l0-53.1c0-16.5-5.1-30-15.3-40.3
		C335.5,76.3,323.2,71.2,306.2,71.2z"/>
</g>
<g>
	<circle id="XMLID_35_" class="st1" cx="97.1" cy="19.3" r="19.3"/>
	<circle id="XMLID_34_" class="st1" cx="97.1" cy="108.6" r="19.3"/>
	<circle id="XMLID_33_" class="st1" cx="97.1" cy="197.9" r="19.3"/>
	<circle id="XMLID_32_" class="st1" cx="174.4" cy="63.9" r="19.3"/>
	<path class="st1" d="M174.4,105.6c-10.7,0-19.3,8.7-19.3,19.4l0,28.7c0.2,10.4,8.7,18.9,19.2,18.9s19.1-8.5,19.4-18.9l0.1-28.7
		C193.7,114.3,185.1,105.6,174.4,105.6z"/>
	<path class="st1" d="M19.8,44.6C9.1,44.6,0.5,53.3,0.5,64l0,28.7c0.2,10.4,8.7,18.9,19.2,18.9s19.1-8.5,19.4-18.9L39.1,64
		C39.1,53.3,30.5,44.6,19.8,44.6z"/>
	<circle id="XMLID_31_" class="st1" cx="19.8" cy="153.2" r="19.3"/>
</g>
</svg>
